<svg width="210" height="210" viewBox="0 0 210 210" fill="none" xmlns="http://www.w3.org/2000/svg">
<path d="M105 0.106781C96.8205 0.106781 88.8595 1.04291 81.2223 2.81765C42.3846 11.8162 11.8161 42.3847 2.81756 81.2184C1.04282 88.8596 0.106689 96.8206 0.106689 105C0.106689 162.931 47.0691 209.893 105 209.893C113.179 209.893 121.14 208.957 128.781 207.182C167.615 198.184 198.184 167.619 207.186 128.789C208.961 121.148 209.897 113.183 209.897 105C209.897 47.0692 162.931 0.106781 105 0.106781ZM105 170.689C97.2574 170.689 89.8307 169.351 82.9346 166.89C64.407 160.282 49.7215 145.597 43.114 127.069C40.6528 120.173 39.3149 112.743 39.3149 105C39.3149 68.7211 68.721 39.3111 105 39.3111C112.742 39.3111 120.169 40.6489 127.065 43.1102C145.593 49.7177 160.282 64.4032 166.89 82.9308C169.351 89.8269 170.689 97.2574 170.689 105C170.689 141.279 141.279 170.689 105 170.689Z" fill="url(#paint0_linear_2001_1736)"/>
<defs>
<linearGradient id="paint0_linear_2001_1736" x1="178.166" y1="35.863" x2="34.1116" y2="171.988" gradientUnits="userSpaceOnUse">
<stop stop-color="#F38856"/>
<stop offset="0.23" stop-color="#F0625C"/>
<stop offset="1" stop-color="#5C3DAB"/>
</linearGradient>
</defs>
</svg>
